<svg xmlns="http://www.w3.org/2000/svg" width="85" height="83" fill="none" viewBox="0 0 85 83">
  <path stroke="#fff" stroke-linecap="round" stroke-linejoin="round" stroke-width="2" d="M57.517 26.837a20.725 20.725 0 0 1 4.612 6.734 20.327 20.327 0 0 1 1.62 7.946c0 2.727-.55 5.427-1.62 7.946a20.724 20.724 0 0 1-4.612 6.735m-30.034-.035a20.724 20.724 0 0 1-4.612-6.734 20.327 20.327 0 0 1-1.62-7.946c0-2.727.55-5.427 1.62-7.946a20.724 20.724 0 0 1 4.612-6.735M67.54 17.05c6.64 6.485 10.37 15.28 10.37 24.45s-3.73 17.965-10.37 24.45m-50.08 0C10.82 59.465 7.09 50.67 7.09 41.5s3.73-17.965 10.37-24.45"/>
  <g clip-path="url(#a)">
    <path stroke="#fff" stroke-linecap="round" stroke-linejoin="round" stroke-width="2" d="M50 30.333H34A2.667 2.667 0 0 0 31.333 33v16A2.667 2.667 0 0 0 34 51.667h16A2.667 2.667 0 0 0 52.667 49V33A2.667 2.667 0 0 0 50 30.333Z"/>
    <path stroke="#fff" stroke-linecap="round" stroke-linejoin="round" stroke-width="2" d="M46 37h-8v8h8v-8Zm-8-10.667v4m8-4v4m-8 21.334v4m8-4v4M52.667 37h4m-4 6.667h4M27.333 37h4m-4 6.667h4"/>
  </g>
  <defs>
    <clipPath id="a">
      <path fill="#fff" d="M26 25h32v32H26z"/>
    </clipPath>
  </defs>
</svg>
